# xmcd
#
# Track frame offsets:
# 150
# 13585
# 31900
# 53384
# 66612
# 89025
# 108083
# 129996
# 144725
#
# Disc length: 2162 seconds
#
#
# Revision: 0
# Processed by: cddbd v1.5PL3 Copyright (c) Steve Scherf et al.
# Submitted via: FreeRIP 2.70 
#
DISCID=76087009
DTITLE=Duke Tumatoe and The All-Star Frogs - Red Peper Hot!
DYEAR=1976
DGENRE=Blues
TTITLE0=Goodtime
TTITLE1=It's A Lie
TTITLE2=You Can't Fool Me
TTITLE3=Sweetest Thing
TTITLE4=Captive Of Love
TTITLE5=Blues With A Feeling
TTITLE6=Red Pepper Hot!
TTITLE7=Wild Woman
TTITLE8=Captain Jinx and Salty Sam
EXTD=L.V. Hammond - Bass\nGary Brewer - Drums\nDuke Tumatoe - Guitar and Lead Vocals\nJim Hill - Keyboards and Vocals\nLouis "Doc" LeCouris - Harmonica, Chromanica and Vocals\nwww.duketumatoe.com
EXTT0=
EXTT1=
EXTT2=
EXTT3=
EXTT4=
EXTT5=
EXTT6=
EXTT7=
EXTT8=
PLAYORDER=
